<svg xmlns="http://www.w3.org/2000/svg" viewBox="0 0 563 401">
    <defs>
    <linearGradient id="goldGradient" x1="0%" y1="0%" x2="100%" y2="100%">
      <stop offset="0%" stop-color="#78550A"/>
      <stop offset="30%" stop-color="#B58314"/>
      <stop offset="60%" stop-color="#E8B224"/>
      <stop offset="100%" stop-color="#FFDF58"/>
    </linearGradient>
    </defs>
    <path d="M 488 249 470 249 469 248 433 248 432 249 417 249 416 250 416 264 414 268 414 271 410 278 400 288 399 288 397 290 390 294 388 294 384 296 381 296 380 297 375 297 374 298 348 298 347 299 345 299 344 298 340 298 339 299 335 299 335 300 325 310 325 311 321 315 320 315 320 316 318 317 311 325 310 325 300 335 299 335 288 345 287 345 284 348 280 350 276 354 275 354 270 358 267 359 266 360 266 362 380 362 381 361 391 361 392 360 398 360 399 359 408 358 409 357 412 357 418 354 426 352 428 350 439 345 441 343 445 341 448 338 449 338 465 322 465 321 468 318 468 317 472 312 480 296 480 294 482 291 482 288 483 287 483 285 485 281 486 273 487 272 487 265 488 264 Z" fill="url(#goldGradient)" /><path d="M 52 51 52 163 51 164 53 166 124 166 125 165 125 163 124 162 124 155 125 154 125 115 126 114 187 114 188 115 192 115 193 116 197 116 198 117 200 117 203 119 207 120 211 124 215 126 218 129 218 130 221 133 221 135 223 139 224 148 223 149 223 153 222 154 221 159 218 163 218 164 214 168 214 169 208 174 202 177 200 177 199 178 194 178 193 179 60 179 59 180 54 180 53 179 52 180 52 227 51 229 52 230 55 230 56 231 57 230 60 230 61 231 194 231 195 232 202 232 203 233 211 234 223 240 231 248 231 249 233 251 234 255 235 256 235 259 236 260 236 272 235 273 235 276 231 284 229 286 229 287 221 295 218 296 214 299 212 299 211 300 207 300 206 301 201 301 200 302 125 302 124 301 124 244 78 244 77 245 65 244 64 245 52 245 52 258 51 259 52 260 52 263 51 264 51 270 53 271 54 270 56 271 57 270 72 270 73 271 77 271 78 270 88 270 89 271 91 270 107 270 108 271 108 288 106 291 73 291 72 290 52 290 52 361 111 361 112 362 236 362 237 361 241 360 241 359 245 355 246 355 247 353 258 342 259 342 260 340 261 340 274 327 275 327 279 323 280 323 293 310 293 309 298 303 303 293 303 291 304 290 304 288 306 284 306 281 307 280 307 275 308 274 308 257 307 256 307 252 306 251 305 243 302 238 302 236 300 232 296 227 295 224 287 216 286 216 278 209 273 207 266 202 266 201 269 198 273 196 284 185 284 184 289 177 289 175 291 172 291 170 293 166 293 162 294 161 294 144 293 143 293 138 292 137 292 134 291 133 291 131 289 128 289 126 287 122 285 120 285 119 283 117 279 110 261 92 260 92 247 80 243 78 237 72 236 72 235 71 236 70 235 71 233 69 234 68 233 69 232 68 232 66 231 68 230 67 230 64 225 62 224 60 219 58 214 53 214 52 213 53 211 51 Z" fill="url(#goldGradient)" /><path d="M 238 50 239 52 250 57 252 59 260 63 263 66 266 67 276 75 283 79 288 84 289 84 294 89 295 89 313 107 313 108 319 114 321 114 322 113 332 113 333 114 352 114 353 113 357 113 358 114 359 113 360 114 374 114 375 115 380 115 381 116 384 116 385 117 390 118 401 124 410 133 411 136 413 138 416 150 418 151 485 151 486 150 487 151 488 150 488 148 487 147 487 135 486 134 486 129 485 128 485 125 484 124 485 122 483 121 483 119 484 118 482 117 483 116 480 112 479 108 472 94 470 92 470 90 469 90 454 74 450 72 448 70 448 69 447 70 445 67 444 68 442 65 441 66 440 64 439 64 437 62 433 62 428 59 426 59 423 57 421 57 417 55 414 55 413 54 406 53 405 52 407 51 405 52 400 52 399 51 391 51 390 50 371 50 370 49 344 49 343 50 Z" fill="url(#goldGradient)" /></svg>